<svg width="217" height="7" viewBox="0 0 217 7" fill="none" xmlns="http://www.w3.org/2000/svg">
<path fill-rule="evenodd" clip-rule="evenodd" d="M5.5574 5.5243C10.1354 5.11023 22.1667 5.08952 54.827 5.04812C105.827 4.98601 146.304 4.53053 157.553 3.86802C158.447 3.80591 86.9569 3.35043 79.6153 3.68169C68.1703 4.21998 13.5131 3.7645 2.51467 3.14339C-0.611786 2.97776 0.560646 2.39806 2.59842 2.27384C5.78069 2.0668 14.3227 2.08751 37.7432 2.12892C54.2129 2.14962 185.245 1.67344 199.565 0.824589C207.604 0.348407 212.49 -0.0863667 214.723 0.0171514C216.593 0.0999656 216.621 0.348407 215.002 1.03163C213.913 1.4871 215.141 1.75625 215.923 1.88047C217.123 2.08751 216.621 2.79143 215.113 3.35043C213.076 4.11646 209.558 4.09575 211.233 3.32972C211.596 3.16409 211.68 2.75002 210.396 2.83284C206.655 3.08128 180.22 4.77897 173.046 5.06882C96.4479 8.21576 21.6921 5.91767 5.86444 6.6837C0.253572 6.97355 2.82177 5.77274 5.5574 5.5243Z" fill="#25B4F8"/>
</svg>
