<svg width="30" height="30" viewBox="0 0 30 30" fill="none" xmlns="http://www.w3.org/2000/svg">
<path d="M3.75 21.5624V26.2499H8.4375L22.2625 12.4249L17.575 7.73738L3.75 21.5624ZM25.8875 8.79988C26.0034 8.68424 26.0953 8.54688 26.158 8.39566C26.2208 8.24444 26.2531 8.08234 26.2531 7.91863C26.2531 7.75492 26.2208 7.59282 26.158 7.4416C26.0953 7.29038 26.0034 7.15302 25.8875 7.03738L22.9625 4.11238C22.8469 3.9965 22.7095 3.90457 22.5583 3.84184C22.4071 3.77911 22.245 3.74683 22.0813 3.74683C21.9175 3.74683 21.7554 3.77911 21.6042 3.84184C21.453 3.90457 21.3156 3.9965 21.2 4.11238L18.9125 6.39988L23.6 11.0874L25.8875 8.79988Z" fill="#74BCEE"/>
</svg>
