<svg width="192" height="194" viewBox="0 0 192 194" fill="none" xmlns="http://www.w3.org/2000/svg">
<path opacity="0.4" d="M98.3232 114C97.843 113.942 97.2256 113.942 96.6768 114C84.6037 113.652 75 105.298 75 95.029C75 84.5282 85.0152 76 97.5 76C109.916 76 120 84.5282 120 95.029C119.931 105.298 110.396 113.652 98.3232 114Z" stroke="white" stroke-width="10" stroke-linecap="round" stroke-linejoin="round"/>
<path opacity="0.34" d="M143 162.436C130.588 172.119 114.131 178 96.0001 178C77.8694 178 61.4124 172.119 49 162.436C49.6973 156.851 53.8813 151.386 61.3427 147.109C80.4495 136.297 111.69 136.297 130.657 147.109C138.119 151.386 142.303 156.851 143 162.436Z" stroke="white" stroke-width="10" stroke-linecap="round" stroke-linejoin="round"/>
<path d="M96 189C146.257 189 187 147.81 187 97C187 46.1898 146.257 5 96 5C45.7421 5 5 46.1898 5 97C5 147.81 45.7421 189 96 189Z" stroke="white" stroke-width="10" stroke-linecap="round" stroke-linejoin="round"/>
</svg>
