<svg width="62" height="58" viewBox="0 0 62 58" fill="none" xmlns="http://www.w3.org/2000/svg">
<path opacity="0.4" d="M31.7744 34C31.6143 33.9771 31.4085 33.9771 31.2256 34C27.2012 33.8626 24 30.5649 24 26.5114C24 22.3664 27.3384 19 31.5 19C35.6387 19 39 22.3664 39 26.5114C38.9771 30.5649 35.7988 33.8626 31.7744 34Z" stroke="black" stroke-width="2" stroke-linecap="round" stroke-linejoin="round"/>
<path opacity="0.34" d="M46 51.4128C42.0386 54.8888 36.7864 57 31 57C25.2136 57 19.9614 54.8888 16 51.4128C16.2226 49.4082 17.5579 47.4463 19.9392 45.9109C26.0371 42.0297 36.0074 42.0297 42.0608 45.9109C44.4421 47.4463 45.7774 49.4082 46 51.4128Z" stroke="#1B0808" stroke-width="2" stroke-linecap="round" stroke-linejoin="round"/>
<path d="M31 57C47.5684 57 61 44.4638 61 29C61 13.536 47.5684 1 31 1C14.4314 1 1 13.536 1 29C1 44.4638 14.4314 57 31 57Z" stroke="white" stroke-width="2" stroke-linecap="round" stroke-linejoin="round"/>
<path d="M31 57C47.5684 57 61 44.4638 61 29C61 13.536 47.5684 1 31 1C14.4314 1 1 13.536 1 29C1 44.4638 14.4314 57 31 57Z" stroke="black" stroke-width="2" stroke-linecap="round" stroke-linejoin="round"/>
</svg>
