<svg width="26" height="24" viewBox="0 0 26 24" fill="none" xmlns="http://www.w3.org/2000/svg">
<path fill-rule="evenodd" clip-rule="evenodd" d="M3.46088 10.75C3.46088 9.76509 3.67864 8.78982 4.10172 7.87987C4.5248 6.96993 5.14491 6.14314 5.92666 5.4467C6.70841 4.75026 7.63648 4.19781 8.65789 3.8209C9.67929 3.44399 10.774 3.25 11.8796 3.25C12.9851 3.25 14.0799 3.44399 15.1013 3.8209C16.1227 4.19781 17.0508 4.75026 17.8325 5.4467C18.6143 6.14314 19.2344 6.96993 19.6575 7.87987C20.0805 8.78982 20.2983 9.76509 20.2983 10.75C20.2983 12.7391 19.4113 14.6468 17.8325 16.0533C16.2537 17.4598 14.1124 18.25 11.8796 18.25C9.64681 18.25 7.50548 17.4598 5.92666 16.0533C4.34785 14.6468 3.46088 12.7391 3.46088 10.75ZM11.8796 0.75C10.0932 0.750228 8.33271 1.13027 6.74437 1.85855C5.15604 2.58683 3.78574 3.6423 2.74737 4.93726C1.709 6.23221 1.03255 7.72925 0.774233 9.30394C0.515914 10.8786 0.683191 12.4855 1.26216 13.991C1.84113 15.4966 2.81507 16.8572 4.10304 17.96C5.39101 19.0628 6.95581 19.8757 8.6674 20.3314C10.379 20.787 12.1879 20.8722 13.9439 20.5797C15.6998 20.2873 17.3521 19.6257 18.7633 18.65L23.5156 22.8838C23.7803 23.1114 24.1347 23.2374 24.5026 23.2346C24.8705 23.2317 25.2224 23.1003 25.4826 22.8685C25.7427 22.6368 25.8903 22.3232 25.8935 21.9955C25.8967 21.6678 25.7552 21.352 25.4996 21.1162L20.7473 16.8825C22.0355 15.4043 22.8322 13.6338 23.047 11.7722C23.2617 9.91063 22.8858 8.03274 21.9619 6.35206C21.0381 4.67138 19.6034 3.25536 17.8211 2.26503C16.0387 1.2747 13.9802 0.749792 11.8796 0.75ZM11.8796 15.75C13.3681 15.75 14.7957 15.2232 15.8482 14.2855C16.9007 13.3479 17.4921 12.0761 17.4921 10.75C17.4921 9.42392 16.9007 8.15215 15.8482 7.21447C14.7957 6.27678 13.3681 5.75 11.8796 5.75C10.3911 5.75 8.96351 6.27678 7.91097 7.21447C6.85843 8.15215 6.26712 9.42392 6.26712 10.75C6.26712 12.0761 6.85843 13.3479 7.91097 14.2855C8.96351 15.2232 10.3911 15.75 11.8796 15.75Z" fill="#22ACF1"/>
</svg>
